<?xml version="1.0" encoding="utf-8"?>
<!-- Generator: Adobe Illustrator 23.0.1, SVG Export Plug-In . SVG Version: 6.00 Build 0)  -->
<svg version="1.1" id="Layer_1" xmlns="http://www.w3.org/2000/svg" xmlns:xlink="http://www.w3.org/1999/xlink" x="0px" y="0px"
	 viewBox="0 0 24 30" style="enable-background:new 0 0 24 30;" xml:space="preserve">
<style type="text/css">
	.st0{fill:#FFFFFF;}
</style>
<g>
	<g>
		<path class="st0" d="M24,12c0-6.6-5.4-12-12-12S0,5.4,0,12c0,6.1,4.6,11.2,10.6,11.9l0,0C11,24,11.5,24,12,24s1,0,1.4-0.1l0,0l0,0
			C19.4,23.1,24,18.1,24,12z M12,1c6.1,0,11,4.9,11,11c0,2.3-0.7,4.4-1.9,6.1c-0.5-0.2-1.4-0.5-1.5-0.5l-2-0.7
			c-0.3-0.1-0.6-0.3-0.8-0.5l-0.7-0.6c0.5-0.6,0.9-1.3,1.2-2.1c0.1,0,0.1,0,0.2,0c0.9,0,1.5-1.1,1.5-2.6c0-0.2-0.1-0.8-0.1-1
			c0-0.1,0.1-0.3,0.1-0.5l0,0l0,0l0,0V9V8.9C18.7,5,15.7,2,12,2S5.3,5,5,8.9V9v0.5l0,0l0,0l0,0C5,9.7,5,9.9,5.1,10
			c0,0.3-0.1,0.8-0.1,1c0,1.5,0.6,2.6,1.5,2.6c0.1,0,0.1,0,0.2,0c0.3,0.8,0.7,1.5,1.2,2.1l-0.7,0.6c-0.2,0.2-0.5,0.4-0.8,0.5l-2,0.7
			c-0.1,0-0.9,0.4-1.5,0.6C1.7,16.4,1,14.3,1,12C1,5.9,5.9,1,12,1z M12.3,18.1c-0.2-0.1-0.4-0.1-0.6,0l-2,1.6L8.1,17l0.5-0.4
			c0.6,0.5,1.3,1,2,1.2c0.1,0,0.2,0.1,0.3,0.1s0.2,0.1,0.4,0.1c0.2,0,0.5,0,0.7,0s0.5,0,0.8-0.1c0.1,0,0.2,0,0.4-0.1
			c0.1,0,0.2-0.1,0.2-0.1c0.7-0.2,1.4-0.6,2-1.2l0.5,0.4l-1.6,2.7L12.3,18.1z M6.5,12.7c-0.2,0-0.5-0.6-0.5-1.6
			c0-0.2,0.1-0.8,0.1-0.9c0.3,0.1,0.5,0.2,0.6,0.3h0.1c0.1,0,0.2,0,0.3,0h0.1c0.2-0.1,0.3-0.2,0.3-0.4C7.6,9.3,7.9,8.5,8,8.4
			c0.8,0,2.5-0.3,3.2-1.4c1,0.9,2.8,1.8,4.9,2c0.1,0.7,0.5,1.3,0.5,1.4c0.1,0.1,0.2,0.2,0.3,0.2H17c0.1,0,0.2,0,0.3-0.1
			c0,0,0.3-0.2,0.6-0.3c0,0.2,0.1,0.8,0.1,1c0,1-0.4,1.6-0.5,1.6c0,0,0,0-0.1-0.1s-0.3-0.2-0.5-0.2s-0.3,0.2-0.4,0.3
			c-0.6,2-1.9,3.5-3.5,4c-0.1,0-0.1,0-0.2,0.1c-0.1,0-0.2,0-0.3,0.1c-0.1,0-0.3,0-0.5,0s-0.4,0-0.6-0.1c-0.1,0-0.2,0-0.3-0.1
			c-0.1,0-0.1,0-0.2-0.1c-1.5-0.5-2.8-2-3.5-4c-0.1-0.2-0.2-0.3-0.4-0.3C6.9,12.4,6.7,12.5,6.5,12.7L6.5,12.7z M3.5,19
			c0.5-0.2,1.1-0.4,1.2-0.4l2-0.7c0.2-0.1,0.4-0.2,0.5-0.3L9,20.7C9.1,20.9,9.3,21,9.4,21c0.1,0,0.3,0,0.4-0.1l0.4-0.3
			c0.1,0.3,0.3,0.6,0.5,0.8l-0.5,1.5C7.5,22.4,5.2,21,3.5,19z M13.8,22.8l-0.5-1.5c0.2-0.2,0.3-0.5,0.5-0.8l0.4,0.3
			c0.1,0.1,0.2,0.1,0.3,0.1h0.1c0.1,0,0.3-0.1,0.3-0.2l1.8-3.1c0.2,0.1,0.4,0.2,0.5,0.2l2,0.7c0.1,0,0.7,0.2,1.2,0.4
			C18.8,21,16.5,22.4,13.8,22.8z"/>
	</g>
</g>
</svg>
