<svg xmlns="http://www.w3.org/2000/svg" xmlns:xlink="http://www.w3.org/1999/xlink" version="1.1" x="0px" y="0px" viewBox="0 0 100 125" style="enable-background:new 0 0 100 100;" xml:space="preserve"><g><path d="M18,82H82c0.5,0,0.9-0.4,1-0.9c0-0.4,1-10.6-5.6-13.8c-1.5-0.7-3.6-1.4-5.8-2.1c-5.3-1.7-11.9-3.7-13-8.1   c0-0.5,0.3-2.8,2-4.6c2.6-2.6,5.3-10,5.3-17c0-0.4-0.7-10.4-6.4-14.5C59.1,20.7,56,18,50,18c0,0,0,0-0.1,0c-6,0-9,2.7-9.6,3.2   c-5.6,4.1-6.3,14.1-6.4,14.5c0,6.9,2.8,14.3,5.3,16.9c1.7,1.7,2,4.1,2,4.6c-1.1,4.3-7.7,6.4-13,8.1c-2.2,0.7-4.3,1.3-5.8,2.1   C16,70.5,17,80.7,17,81.1C17.1,81.6,17.5,82,18,82z M23.5,69.1c1.4-0.7,3.4-1.3,5.5-2c5.8-1.8,13.1-4.1,14.4-9.6c0-0.1,0-0.1,0-0.2   c0-0.1,0-3.5-2.6-6.1c-1.9-1.9-4.7-8.6-4.7-15.4c0-0.1,0.7-9.5,5.6-13c0,0,0.1-0.1,0.1-0.1c0,0,2.7-2.6,8.2-2.7c0,0,0,0,0,0   c5.5,0,8.2,2.6,8.2,2.6c0,0,0.1,0.1,0.1,0.1c4.9,3.5,5.6,12.9,5.6,13c0,6.9-2.8,13.5-4.7,15.5c-2.6,2.6-2.6,5.9-2.6,6.1   c0,0.1,0,0.1,0,0.2c1.2,5.5,8.5,7.8,14.4,9.6c2.1,0.7,4.1,1.3,5.5,2c4.3,2.1,4.6,8.5,4.5,10.9H19C18.9,77.6,19.2,71.2,23.5,69.1z"/></g><text x="0" y="115" fill="#000000" font-size="5px" font-weight="bold" font-family="'Helvetica Neue', Helvetica, Arial-Unicode, Arial, Sans-serif">Created by Besticons</text><text x="0" y="120" fill="#000000" font-size="5px" font-weight="bold" font-family="'Helvetica Neue', Helvetica, Arial-Unicode, Arial, Sans-serif">from the Noun Project</text></svg>