<svg xmlns="http://www.w3.org/2000/svg" xmlns:xlink="http://www.w3.org/1999/xlink" version="1.1" x="0px" y="0px" viewBox="0 0 100 125" enable-background="new 0 0 100 100" xml:space="preserve"><g><path d="M84.324,55.749c-1.105,0-2,0.896-2,2v21.345l-64.578-0.165V57.768c0-1.104-0.896-2-2-2s-2,0.896-2,2v23.156   c0,1.103,0.893,1.997,1.995,2l68.577,0.175c0.002,0,0.004,0,0.006,0c0.529,0,1.037-0.21,1.412-0.584   c0.377-0.375,0.588-0.885,0.588-1.416v-23.35C86.324,56.645,85.428,55.749,84.324,55.749z"/><path d="M40.783,23.551c1.104,0,2-0.896,2-2v-0.649h14.426v0.79c0,1.104,0.895,2,2,2c1.104,0,2-0.896,2-2v-2.79   c0-1.104-0.896-2-2-2H40.783c-1.104,0-2,0.896-2,2v2.649C38.783,22.655,39.678,23.551,40.783,23.551z"/><path d="M15.162,51.631l27.349,7.286v6.272c0,1.104,0.896,2,2,2h10.97c1.105,0,2-0.896,2-2v-6.272l27.35-7.286   c0.877-0.233,1.486-1.026,1.486-1.933V27.053c0-1.104-0.896-2-2-2h-68.64c-1.104,0-2,0.896-2,2v22.646   C13.676,50.604,14.286,51.397,15.162,51.631z M53.48,63.189h-6.97v-9.854h6.97V63.189z M17.676,29.053h64.64v19.108L57.48,54.776   v-3.441c0-1.104-0.895-2-2-2H44.51c-1.104,0-2,0.896-2,2v3.441l-24.834-6.615V29.053z"/></g><text x="0" y="115" fill="#000000" font-size="5px" font-weight="bold" font-family="'Helvetica Neue', Helvetica, Arial-Unicode, Arial, Sans-serif">Created by Nikita Kozin</text><text x="0" y="120" fill="#000000" font-size="5px" font-weight="bold" font-family="'Helvetica Neue', Helvetica, Arial-Unicode, Arial, Sans-serif">from the Noun Project</text></svg>