<svg xmlns="http://www.w3.org/2000/svg" xmlns:xlink="http://www.w3.org/1999/xlink" version="1.1" x="0px" y="0px" viewBox="0 0 68 85" style="enable-background:new 0 0 68 68;" xml:space="preserve"><style type="text/css">
	.st0{fill:#010101;}
</style><g><g><g><path class="st0" d="M54.7,18.3C54.7,18.3,54.7,18.3,54.7,18.3L37,1.3c0,0,0,0,0,0l0,0C36.8,1.1,36.5,1,36.3,1H2C1.4,1,1,1.4,1,2     v64c0,0.6,0.4,1,1,1h52c0.6,0,1-0.4,1-1v-4.1V19.1C55,18.8,54.9,18.5,54.7,18.3z M37.3,4.3l14.2,13.7H37.3V4.3z M53,65H3V3h32.3     v16.1c0,0.6,0.4,1,1,1H53v41.8V65z"/></g></g><g><g><path class="st0" d="M67,53.1l-0.2-22.6l0,0v0l0-4.1c0-2.6-2-4.6-4.3-4.6l-1.3,0c-2.4,0-4.3,2.2-4.2,4.7l0.3,26.6     c0,0,0,0.3,0,0.3l4.1,12.9c0.1,0.4,0.5,0.7,1,0.7c0,0,0,0,0,0c0.4,0,0.8-0.3,1-0.7L67,53.4C67,53.4,67,53.1,67,53.1z M58.9,31.5     h5.8L65,52.1l-5.8,0L58.9,31.5z M61.1,23.8l1.3,0c1.3,0,2.3,1.2,2.3,2.6l0,3h-5.8l0-3C58.9,25,59.9,23.8,61.1,23.8z M62.2,62.6     l-2.7-8.4l5.1,0L62.2,62.6z"/></g></g><g><g><path class="st0" d="M47.6,26.2l-7.3,6.1l-2.2-3.4c-0.3-0.5-0.9-0.6-1.4-0.3c-0.5,0.3-0.6,0.9-0.3,1.4l2.8,4.3     c0.2,0.2,0.4,0.4,0.7,0.4c0.3,0,0.6,0,0.8-0.2l8.1-6.8c0.4-0.4,0.5-1,0.1-1.4C48.7,25.9,48.1,25.8,47.6,26.2z"/></g></g><g><g><path class="st0" d="M33.3,38.7H47c0.6,0,1-0.4,1-1v-5.4c0-0.6-0.4-1-1-1s-1,0.4-1,1v4.4H34.3V24.9H47c0.6,0,1-0.4,1-1     c0-0.6-0.4-1-1-1H33.3c-0.6,0-1,0.4-1,1v13.8C32.3,38.3,32.7,38.7,33.3,38.7z"/></g></g><g><g><path class="st0" d="M16.9,17.8c3.2,0,5.8-2.6,5.8-5.8s-2.6-5.8-5.8-5.8c-3.2,0-5.8,2.6-5.8,5.8S13.7,17.8,16.9,17.8z M16.9,8.3     c2.1,0,3.8,1.7,3.8,3.8s-1.7,3.8-3.8,3.8c-2.1,0-3.8-1.7-3.8-3.8S14.8,8.3,16.9,8.3z"/></g></g><g><g><path class="st0" d="M25.8,27.1c0.6,0,1-0.4,1-1v-1.1c0-3.8-3.1-6.9-6.9-6.9h-6c-3.8,0-6.9,3.1-6.9,6.9v1.1c0,0.6,0.4,1,1,1H25.8     z M9,25.1c0-2.7,2.2-4.9,4.9-4.9h6c2.7,0,4.9,2.2,4.9,4.9v0.1L9,25.1L9,25.1z"/></g></g><g><g><path class="st0" d="M8.5,30.3c-0.6,0-1,0.4-1,1c0,0.6,0.4,1,1,1h17.8c0.6,0,1-0.4,1-1c0-0.6-0.4-1-1-1H8.5z"/></g></g><g><g><path class="st0" d="M26.4,36.1H8.5c-0.6,0-1,0.4-1,1c0,0.6,0.4,1,1,1h17.8c0.6,0,1-0.4,1-1C27.4,36.6,26.9,36.1,26.4,36.1z"/></g></g><g><g><path class="st0" d="M47.7,41.9H8.5c-0.6,0-1,0.4-1,1c0,0.6,0.4,1,1,1h39.2c0.6,0,1-0.4,1-1C48.7,42.4,48.3,41.9,47.7,41.9z"/></g></g><g><g><path class="st0" d="M47.7,47.7H8.5c-0.6,0-1,0.4-1,1c0,0.6,0.4,1,1,1h39.2c0.6,0,1-0.4,1-1C48.7,48.2,48.3,47.7,47.7,47.7z"/></g></g><g><g><path class="st0" d="M47.7,53.5H8.5c-0.6,0-1,0.4-1,1c0,0.6,0.4,1,1,1h39.2c0.6,0,1-0.4,1-1C48.7,54,48.3,53.5,47.7,53.5z"/></g></g><g><g><path class="st0" d="M47.7,59.3H8.5c-0.6,0-1,0.4-1,1s0.4,1,1,1h39.2c0.6,0,1-0.4,1-1S48.3,59.3,47.7,59.3z"/></g></g></g><text x="0" y="83" fill="#000000" font-size="5px" font-weight="bold" font-family="'Helvetica Neue', Helvetica, Arial-Unicode, Arial, Sans-serif">Created by Vectors Market</text><text x="0" y="88" fill="#000000" font-size="5px" font-weight="bold" font-family="'Helvetica Neue', Helvetica, Arial-Unicode, Arial, Sans-serif">from the Noun Project</text></svg>