<svg xmlns="http://www.w3.org/2000/svg" xmlns:xlink="http://www.w3.org/1999/xlink" version="1.1" x="0px" y="0px" viewBox="0 0 96 120" enable-background="new 0 0 96 96" xml:space="preserve"><g><path d="M69.834,32.873L50.607,14.301c0.598-0.711,0.933-1.638,0.933-2.613c0-2.147-1.588-3.894-3.54-3.894s-3.54,1.747-3.54,3.894   c0,0.976,0.335,1.902,0.933,2.613L26.167,32.873H7v55.333h82V32.873H69.834z M48,9.794c0.85,0,1.54,0.85,1.54,1.894   c0,0.728-0.343,1.38-0.855,1.681c-0.449,0.21-0.96,0.189-1.332,0.02c-0.551-0.322-0.893-0.973-0.893-1.7   C46.46,10.644,47.151,9.794,48,9.794z M47.117,15.417c0.58,0.149,1.187,0.15,1.767,0l18.07,17.456H29.045L47.117,15.417z    M87,86.206H9V34.873h78V86.206z"/><rect x="23.875" y="47" width="48.25" height="2"/><rect x="23.875" y="60.5" width="48.25" height="2"/><rect x="23.875" y="74" width="48.25" height="2"/></g><text x="0" y="111" fill="#000000" font-size="5px" font-weight="bold" font-family="'Helvetica Neue', Helvetica, Arial-Unicode, Arial, Sans-serif">Created by projecthayat</text><text x="0" y="116" fill="#000000" font-size="5px" font-weight="bold" font-family="'Helvetica Neue', Helvetica, Arial-Unicode, Arial, Sans-serif">from the Noun Project</text></svg>