<svg xmlns="http://www.w3.org/2000/svg" viewBox="0 0 96 120" x="0px" y="0px"><title>Artboard 4</title><g><path d="M48.4265,41.6363A10,10,0,1,0,35.6,41.6222,13.9617,13.9617,0,0,0,28,54a1.9988,1.9988,0,0,0,2,2H54a1.9988,1.9988,0,0,0,2-2A13.9607,13.9607,0,0,0,48.4265,41.6363ZM36.0216,34.0217a6,6,0,1,1,6.0954,5.99C42.077,40.0116,42.04,40,42,40c-.0327,0-.0628.0095-.0955.01A6,6,0,0,1,36.0216,34.0217ZM32.2014,52a10.0124,10.0124,0,0,1,9.6969-7.9908c.042.0005.081.0124.1233.0124.0354,0,.0681-.01.1032-.0105A10.0112,10.0112,0,0,1,51.7988,52Z"/><path d="M86.22,77.7359,69.906,61.42A34.0812,34.0812,0,1,0,61.42,69.906L77.734,86.22A6,6,0,1,0,86.22,77.7359ZM25.8108,67.2693a30.0058,30.0058,0,1,1,16.2108,4.7519A29.9076,29.9076,0,0,1,25.8108,67.2693ZM83.3921,83.3921a2.0432,2.0432,0,0,1-2.8281,0L64.5694,67.3994a34.3308,34.3308,0,0,0,2.83-2.83L83.3921,80.566a1.9712,1.9712,0,0,1,.586,1.4121A1.9935,1.9935,0,0,1,83.3921,83.3921Z"/></g><text x="0" y="111" fill="#000000" font-size="5px" font-weight="bold" font-family="'Helvetica Neue', Helvetica, Arial-Unicode, Arial, Sans-serif">Created by Deemak Daksina</text><text x="0" y="116" fill="#000000" font-size="5px" font-weight="bold" font-family="'Helvetica Neue', Helvetica, Arial-Unicode, Arial, Sans-serif">from the Noun Project</text></svg>