<?xml version="1.0" standalone="no"?>
<!DOCTYPE svg PUBLIC "-//W3C//DTD SVG 20010904//EN"
 "http://www.w3.org/TR/2001/REC-SVG-20010904/DTD/svg10.dtd">
<svg version="1.0" xmlns="http://www.w3.org/2000/svg"
 width="477.000000pt" height="477.000000pt" viewBox="0 0 477.000000 477.000000"
 preserveAspectRatio="xMidYMid meet">
<metadata>
Created by potrace 1.11, written by Peter Selinger 2001-2013
</metadata>
<g transform="translate(0.000000,477.000000) scale(0.100000,-0.100000)"
fill="#000000" stroke="none">
<path d="M0 2385 l0 -2385 2385 0 2385 0 0 2385 0 2385 -2385 0 -2385 0 0
-2385z m2148 1669 c149 -30 309 -125 410 -242 51 -59 142 -190 142 -204 0 -4
4 -8 9 -8 5 0 11 23 15 51 21 156 114 274 246 310 63 16 173 14 250 -6 36 -9
173 -52 305 -95 334 -110 457 -132 608 -110 56 8 107 23 153 45 47 23 71 30
76 22 15 -24 20 -159 9 -241 -53 -394 -355 -756 -886 -1061 -101 -58 -337
-177 -342 -172 -1 2 -48 133 -103 292 -55 158 -102 291 -105 293 -20 20 -9
-36 45 -245 120 -466 169 -622 253 -805 105 -229 322 -566 566 -881 87 -112
90 -118 68 -126 -121 -46 -411 -120 -574 -147 -135 -23 -393 -25 -473 -5 -69
17 -166 63 -204 97 l-29 26 21 166 c42 320 46 369 46 617 0 244 0 252 -27 340
-38 124 -105 257 -170 336 -135 162 -364 283 -679 358 -130 31 -328 96 -463
154 -575 243 -900 594 -932 1003 -3 46 -4 84 -2 84 2 0 36 -9 74 -20 217 -64
446 -90 623 -72 151 15 225 37 391 116 165 78 229 101 346 126 112 23 232 25
333 4z"/>
</g>
</svg>
