<?xml version="1.0" standalone="no"?>
<!DOCTYPE svg PUBLIC "-//W3C//DTD SVG 20010904//EN"
 "http://www.w3.org/TR/2001/REC-SVG-20010904/DTD/svg10.dtd">
<svg version="1.0" xmlns="http://www.w3.org/2000/svg"
 width="461.000000pt" height="461.000000pt" viewBox="0 0 461.000000 461.000000"
 preserveAspectRatio="xMidYMid meet">
<metadata>
Created by potrace 1.11, written by Peter Selinger 2001-2013
</metadata>
<g transform="translate(0.000000,461.000000) scale(0.100000,-0.100000)"
fill="#000000" stroke="none">
<path d="M0 2305 l0 -2305 2305 0 2305 0 0 2305 0 2305 -2305 0 -2305 0 0
-2305z m3425 1315 c110 -28 212 -89 295 -176 56 -59 150 -194 150 -216 0 -3
-36 13 -80 35 -45 22 -83 38 -85 35 -2 -2 31 -27 73 -55 107 -71 216 -182 255
-263 30 -60 32 -72 32 -165 0 -92 -2 -105 -33 -170 -44 -93 -127 -199 -229
-294 l-84 -77 112 -13 c142 -16 318 -52 392 -81 81 -31 91 -54 52 -128 -34
-65 -169 -247 -276 -371 -69 -81 -73 -83 -108 -78 -20 3 -81 13 -136 21 -221
34 -334 41 -675 41 -371 -1 -544 -13 -860 -61 -264 -40 -570 -53 -905 -37
-620 28 -943 96 -1004 211 -30 56 7 101 226 275 386 306 734 546 983 677 192
102 313 180 500 325 265 205 348 252 505 286 113 25 185 60 305 150 170 127
266 162 425 154 50 -2 126 -14 170 -25z"/>
<path d="M3891 2939 c-54 -179 -250 -416 -482 -581 -136 -97 -382 -230 -503
-272 -45 -16 -3 -14 84 4 194 39 287 44 775 41 318 -2 467 1 460 8 -32 32
-304 96 -501 116 l-61 7 55 51 c97 91 182 199 224 284 35 71 42 95 46 163 3
60 0 91 -12 125 -18 45 -52 95 -65 95 -4 0 -13 -18 -20 -41z"/>
<path d="M2281 2048 c-42 -21 -101 -87 -101 -115 0 -35 81 3 123 59 27 36 43
78 30 78 -4 0 -28 -10 -52 -22z"/>
</g>
</svg>
